<svg xmlns="http://www.w3.org/2000/svg" width="24" height="24" viewBox="0 0 24 24">
  <defs>
    <linearGradient id="wood" x1="3" y1="5" x2="14" y2="19" gradientUnits="userSpaceOnUse">
      <stop stop-color="#ffdc8c"/>
      <stop offset=".52" stop-color="#d99a38"/>
      <stop offset="1" stop-color="#a7601c"/>
    </linearGradient>
    <linearGradient id="tenon" x1="11" y1="9" x2="22" y2="15" gradientUnits="userSpaceOnUse">
      <stop stop-color="#2c805d"/>
      <stop offset="1" stop-color="#123c2d"/>
    </linearGradient>
  </defs>
  <rect x="2.5" y="5" width="10.5" height="14" rx="2.1" fill="url(#wood)"/>
  <path d="M11.5 8.7h10v6.6h-10z" fill="url(#tenon)"/>
  <path d="M4.6 5h7.9v3.7h9v6.6h-9V19H4.6a2.1 2.1 0 0 1-2.1-2.1V7.1A2.1 2.1 0 0 1 4.6 5Z" fill="none" stroke="#173a2c" stroke-width="1.2" stroke-linejoin="round"/>
  <path d="M4.6 7.6c2.2-.8 3.9.5 6-.2M4.6 16.6c2.5-.8 4 .6 6.2-.2" fill="none" stroke="#fff2c8" stroke-width=".75" stroke-linecap="round" opacity=".58"/>
  <path d="M12.5 9.8h7.9M12.5 14.2h7.9" stroke="#5faf89" stroke-width=".7" stroke-linecap="round" opacity=".75"/>
  <path d="M12.4 8.9v6.2" stroke="#091e17" stroke-width=".9"/>
</svg>
