<svg xmlns="http://www.w3.org/2000/svg" width="24" height="24" viewBox="0 0 24 24">
  <defs>
    <linearGradient id="wood" x1="3" y1="4" x2="21" y2="20" gradientUnits="userSpaceOnUse">
      <stop stop-color="#ffd987"/>
      <stop offset=".48" stop-color="#d99a38"/>
      <stop offset="1" stop-color="#a9641e"/>
    </linearGradient>
    <linearGradient id="pocket" x1="7" y1="8" x2="17" y2="16" gradientUnits="userSpaceOnUse">
      <stop stop-color="#174f3a"/>
      <stop offset="1" stop-color="#071d16"/>
    </linearGradient>
  </defs>
  <rect x="2.25" y="4.25" width="19.5" height="15.5" rx="2.5" fill="url(#wood)" stroke="#5b3717" stroke-width="1.1"/>
  <path d="M4.5 7.1c3.1-1 5.1.8 8.1-.1 2.7-.8 4.6-.4 6.8.4M4.4 17c2.8-.9 5 .5 7.3-.2 2.9-.9 5.2-.2 7.8.5" fill="none" stroke="#fff3cc" stroke-width=".75" stroke-linecap="round" opacity=".55"/>
  <g fill="#6b421d" opacity=".5" transform="translate(0 .65)">
    <rect x="6.4" y="8.75" width="11.2" height="6.5" rx=".8"/>
    <circle cx="6.6" cy="9" r="2"/><circle cx="17.4" cy="9" r="2"/>
    <circle cx="6.6" cy="15" r="2"/><circle cx="17.4" cy="15" r="2"/>
  </g>
  <g fill="url(#pocket)">
    <rect x="6.4" y="8.5" width="11.2" height="6.5" rx=".8"/>
    <circle cx="6.6" cy="8.8" r="2"/><circle cx="17.4" cy="8.8" r="2"/>
    <circle cx="6.6" cy="14.8" r="2"/><circle cx="17.4" cy="14.8" r="2"/>
  </g>
  <rect x="7.35" y="9.45" width="9.3" height="4.6" rx="1" fill="#061610"/>
  <path d="M8.2 10.25h7.6" stroke="#4f8e70" stroke-width=".7" stroke-linecap="round" opacity=".85"/>
</svg>
