<svg xmlns="http://www.w3.org/2000/svg" width="32" height="32" viewBox="0 0 32 32">
  <defs>
    <linearGradient id="wood" x1="4" y1="5" x2="28" y2="27" gradientUnits="userSpaceOnUse">
      <stop stop-color="#ffe19a"/>
      <stop offset=".46" stop-color="#dda13f"/>
      <stop offset="1" stop-color="#9b591a"/>
    </linearGradient>
    <linearGradient id="pocket" x1="9" y1="11" x2="23" y2="21" gradientUnits="userSpaceOnUse">
      <stop stop-color="#1e6248"/>
      <stop offset=".55" stop-color="#103c2d"/>
      <stop offset="1" stop-color="#061812"/>
    </linearGradient>
  </defs>
  <rect x="3" y="5" width="26" height="22" rx="3.5" fill="url(#wood)" stroke="#593514" stroke-width="1.5"/>
  <path d="M6 8.8c4.2-1.4 6.9 1 10.9-.3 3.7-1.1 6.1-.5 9.1.6M5.8 23.3c3.8-1.2 6.7.6 9.8-.3 3.9-1.2 7-.3 10.5.6" fill="none" stroke="#fff1c2" stroke-width="1" stroke-linecap="round" opacity=".58"/>
  <g fill="#69401b" opacity=".52" transform="translate(0 .9)">
    <rect x="8.4" y="11.4" width="15.2" height="9.2" rx="1.2"/>
    <circle cx="8.8" cy="11.8" r="2.8"/><circle cx="23.2" cy="11.8" r="2.8"/>
    <circle cx="8.8" cy="20.2" r="2.8"/><circle cx="23.2" cy="20.2" r="2.8"/>
  </g>
  <g fill="url(#pocket)">
    <rect x="8.4" y="11" width="15.2" height="9.2" rx="1.2"/>
    <circle cx="8.8" cy="11.4" r="2.8"/><circle cx="23.2" cy="11.4" r="2.8"/>
    <circle cx="8.8" cy="19.8" r="2.8"/><circle cx="23.2" cy="19.8" r="2.8"/>
  </g>
  <rect x="9.8" y="12.35" width="12.4" height="6.5" rx="1.35" fill="#05150f"/>
  <path d="M10.9 13.45h10.2M11.2 17.7h9.6" stroke="#579677" stroke-width=".9" stroke-linecap="round" opacity=".8"/>
</svg>
